<svg width="115" height="158" viewBox="0 0 115 158" fill="none" xmlns="http://www.w3.org/2000/svg">
<path d="M37.473 122.389L37.4742 122.389L37.4745 122.389C37.4745 122.389 37.4745 122.389 37.4734 122.387L37.1063 121.517C34.1514 122.343 32.0973 123.294 30.8644 124.332C30.2442 124.854 29.8109 125.416 29.5904 126.016C29.3667 126.625 29.3737 127.242 29.5854 127.84C29.9974 129.005 31.1655 130.052 32.7832 130.956C34.4208 131.871 36.6045 132.686 39.1875 133.344C49.5077 135.971 66.5133 136.156 81.5534 129.71L82.6258 129.251L81.5384 128.828C79.1139 127.885 77.0325 126.869 75.5575 126.088C74.8202 125.698 74.2352 125.367 73.8354 125.135C73.6355 125.018 73.4819 124.927 73.3788 124.864C73.3273 124.833 73.2884 124.809 73.2626 124.793L73.2338 124.775L73.227 124.771L73.2254 124.77L73.2252 124.77L73.2251 124.77L73.2251 124.77L73.0668 124.671L72.8832 124.706C59.6062 127.218 53.476 127.414 41.4378 126.04C38.9589 125.755 37.5298 125.337 36.7582 124.905C36.3769 124.692 36.1884 124.493 36.0994 124.337C36.0167 124.193 36.0031 124.057 36.0334 123.914C36.1036 123.583 36.4109 123.212 36.7904 122.886C36.9685 122.733 37.142 122.607 37.2713 122.519C37.3356 122.475 37.3881 122.442 37.4238 122.419C37.4416 122.408 37.4552 122.4 37.4638 122.395L37.473 122.389Z" fill="white" stroke="white" stroke-width="0.953448"/>
<path d="M33.8694 105.658L33.8672 105.659L33.8561 105.668C33.8458 105.676 33.83 105.688 33.8092 105.704C33.7677 105.737 33.7066 105.786 33.6317 105.849C33.4813 105.976 33.277 106.158 33.0619 106.379C32.6194 106.834 32.1825 107.402 32.0227 107.956C31.9457 108.223 31.9385 108.468 32.009 108.693C32.0787 108.916 32.2381 109.163 32.5694 109.414C33.2528 109.931 34.607 110.417 37.0821 110.673C49.9539 112.001 60.1047 112.111 77.7007 108.723L77.9511 108.674L33.8694 105.658ZM33.8694 105.658L33.8694 105.658L33.8696 105.658C33.8696 105.658 33.8696 105.658 33.8687 105.656L33.4356 104.822C30.1872 105.9 27.9236 107.012 26.5532 108.134C25.1827 109.255 24.596 110.493 25.0464 111.748C25.4657 112.917 26.7335 113.898 28.4825 114.71C30.2602 115.535 32.6521 116.24 35.5074 116.79C46.9224 118.989 66.0801 118.775 84.2033 113.476L85.6232 113.061L84.228 112.569C82.3634 111.911 80.8342 110.98 79.7702 110.211C79.2388 109.827 78.8255 109.485 78.5464 109.24C78.4069 109.118 78.3011 109.02 78.231 108.954C78.1959 108.92 78.1699 108.895 78.153 108.878L78.1346 108.86L78.1306 108.856L78.1302 108.856L78.1301 108.856L78.13 108.856L33.8694 105.658Z" fill="white" stroke="white" stroke-width="0.953448"/>
<path d="M63.9898 77.2551L63.9899 77.2552C65.7703 79.305 66.5229 81.2769 66.6771 83.0724C66.8317 84.8737 66.3872 86.5358 65.7116 87.9634C65.0355 89.3921 64.1342 90.572 63.3977 91.3971C63.0303 91.8087 62.7061 92.1295 62.4751 92.3464C62.3596 92.4548 62.2676 92.537 62.2053 92.5914C62.1742 92.6187 62.1505 92.6389 62.135 92.652L62.1181 92.6662L62.1144 92.6693L62.1141 92.6695L62.1138 92.6697C62.1138 92.6697 62.1139 92.6697 62.1153 92.6714L62.6351 93.4617L62.4165 93.0381C62.6351 93.4617 62.6354 93.4616 62.6356 93.4614L62.6366 93.461L62.6397 93.4593L62.651 93.4534L62.6932 93.4312C62.73 93.4117 62.7836 93.383 62.8527 93.3452C62.9909 93.2697 63.1912 93.1581 63.4422 93.0122C63.9441 92.7203 64.6497 92.2907 65.4687 91.7373C67.1042 90.6322 69.2041 89.0255 71.0372 87.028C72.8674 85.0336 74.4586 82.6205 75.0278 79.902C75.6014 77.1628 75.1268 74.1608 72.9085 71.0383L72.9083 71.0381C72.5594 70.5477 72.2155 70.0699 71.8794 69.603C70.2682 67.3646 68.8348 65.3732 67.8741 63.4165C66.7256 61.0773 66.2854 58.8477 67.0487 56.3898C67.8201 53.9056 69.8421 51.1165 73.7921 47.7259C77.7369 44.3396 83.5622 40.3888 91.8701 35.5705L91.5154 34.6956L91.6309 35.1581C91.5154 34.6956 91.515 34.6957 91.5145 34.6958L91.5124 34.6964L91.5047 34.6983L91.4753 34.7058C91.4495 34.7124 91.4114 34.7221 91.3616 34.7351C91.2619 34.7611 91.1151 34.7999 90.9252 34.8517C90.5453 34.9552 89.9926 35.1104 89.2989 35.318C87.9116 35.7332 85.9591 36.3582 83.6947 37.1983C79.1704 38.8768 73.3809 41.4216 68.3659 44.88C63.3606 48.3317 59.0598 52.7397 57.6285 58.167C56.1878 63.63 57.6862 69.9918 63.9898 77.2551Z" fill="white" stroke="white" stroke-width="0.953448"/>
<path d="M104.043 133.896L103.545 134.696C103.543 134.698 103.543 134.698 103.543 134.698L103.544 134.698L103.547 134.702C103.552 134.706 103.561 134.713 103.572 134.724C103.596 134.745 103.631 134.778 103.674 134.822C103.76 134.91 103.875 135.04 103.988 135.202C104.219 135.532 104.415 135.959 104.394 136.43C104.374 136.883 104.15 137.468 103.359 138.122C102.557 138.786 101.194 139.5 98.9573 140.179C90.4079 142.769 72.5303 144.469 54.8602 144.692C46.0346 144.803 37.2804 144.546 29.7927 143.851C22.289 143.154 16.1092 142.021 12.3988 140.406L12.3987 140.406C11.7492 140.123 11.4025 139.855 11.2398 139.635C11.0998 139.446 11.0891 139.29 11.1538 139.116C11.2319 138.905 11.4341 138.644 11.7964 138.345C12.1514 138.053 12.6216 137.756 13.174 137.463C15.3943 136.287 18.7027 135.305 20.2838 134.966L20.2847 134.965C21.9346 134.608 23.2264 134.463 24.1008 134.407C24.5379 134.38 24.8708 134.374 25.0919 134.375C25.2024 134.376 25.285 134.378 25.3387 134.381C25.3656 134.382 25.3852 134.383 25.3975 134.383L25.4105 134.384L25.4123 134.384L25.4125 134.384L25.4127 134.384L25.4128 134.384L25.4129 134.384L27.1201 134.505L25.7205 133.519C24.8497 132.905 23.5576 132.631 22.0887 132.575C20.6038 132.518 18.8665 132.681 17.044 133.005C13.3996 133.654 9.35243 134.96 6.19258 136.521C4.61397 137.301 3.2364 138.154 2.23879 139.034C1.259 139.899 0.55928 140.867 0.524611 141.884C0.488113 142.955 1.18449 143.864 2.47691 144.588C3.76962 145.312 5.75938 145.916 8.57022 146.371C39.0657 151.317 66.8683 150.206 85.0861 146.959C94.1778 145.339 100.942 143.178 104.454 140.934C105.336 140.37 106.036 139.788 106.516 139.188C106.997 138.587 107.279 137.941 107.265 137.268C107.236 135.908 106.033 134.794 104.043 133.896Z" fill="white" stroke="white" stroke-width="0.953448"/>
<path d="M40.0383 87.9694L40.0704 87.4938L40.1485 88.4332L40.0383 87.9694ZM40.0383 87.9694C40.1485 88.4332 40.1484 88.4332 40.1483 88.4333L40.1474 88.4335L40.1439 88.4343L40.1293 88.4378L40.0712 88.4518C40.0199 88.4642 39.9438 88.4827 39.8451 88.5069C39.6476 88.5554 39.36 88.627 38.9999 88.7189C38.2798 88.9029 37.2706 89.1685 36.1154 89.4945C33.801 90.1478 30.9165 91.0397 28.5963 92.0014C27.4338 92.4833 26.434 92.9742 25.7223 93.451C25.3662 93.6896 25.0992 93.9136 24.9215 94.1176C24.7411 94.3247 24.6826 94.4765 24.6743 94.5751C24.6676 94.6532 24.6864 94.7574 24.8234 94.903C24.971 95.0599 25.2398 95.2439 25.6879 95.4356C26.5827 95.8185 28.0562 96.1763 30.283 96.4737L30.2831 96.4737C37.7907 97.4788 52.821 97.2538 66.854 96.078C72.5776 95.5952 78.3159 94.8403 82.6251 94.2056C84.7793 93.8883 86.5753 93.6013 87.8324 93.3936C88.461 93.2898 88.9548 93.2058 89.2912 93.1478C89.4594 93.1188 89.5883 93.0963 89.675 93.0811L89.7731 93.0638L89.7978 93.0594L89.8039 93.0583L89.8054 93.0581L89.8057 93.058L89.8897 93.5273L89.8058 93.058L90.0773 93.9654L90.0773 93.9655L90.0773 93.9655L90.0769 93.9657L90.0749 93.9665L90.0667 93.9701L90.0334 93.9845C90.0038 93.9973 89.9597 94.0166 89.9024 94.0419C89.7877 94.0924 89.62 94.1671 89.4094 94.263C88.9881 94.455 88.3957 94.7318 87.7126 95.0706C86.3428 95.7498 84.6222 96.6713 83.1853 97.6524L83.1174 97.6988L83.0378 97.7197C68.8939 101.44 48.2026 102.429 33.0149 101.545C25.4333 101.103 19.1571 100.192 15.7451 98.8913C14.8892 98.565 14.1828 98.2031 13.6763 97.7972C13.1729 97.3938 12.8088 96.8982 12.7765 96.304C12.7441 95.7073 13.0541 95.1597 13.5591 94.6717C14.066 94.1821 14.8219 93.6987 15.8214 93.2153L15.8215 93.2152C22.4945 89.9896 28.5458 88.5588 32.9323 87.9345C35.1258 87.6224 36.9039 87.5118 38.1365 87.4794C38.7529 87.4632 39.2331 87.4666 39.5607 87.4741C39.7246 87.4779 39.8503 87.4827 39.9359 87.4866C39.9788 87.4886 40.0115 87.4903 40.034 87.4916L40.06 87.4931L40.0672 87.4936L40.0693 87.4937L40.07 87.4937C40.0702 87.4938 40.0704 87.4938 40.0383 87.9694Z" fill="white" stroke="white" stroke-width="0.953448"/>
<path d="M89.5563 115.348L89.3938 115.432L89.3296 115.604C89.2959 115.694 89.2026 115.826 89.0826 115.961C89.028 116.023 88.9766 116.075 88.9389 116.112C88.9202 116.13 88.9053 116.144 88.8955 116.153L88.8849 116.163L88.8834 116.165L88.8833 116.165C88.8833 116.165 88.8833 116.165 88.8836 116.165L89.3221 116.981C98.9263 114.456 105.3 110.956 109.152 107.188C113.009 103.413 114.345 99.3542 113.808 95.774C112.733 88.6047 104.281 83.7908 94.9415 87.0743L94.9402 87.0748C94.0543 87.3893 93.3859 87.907 92.9421 88.3396C92.7193 88.5568 92.5501 88.7554 92.4354 88.9016C92.3779 88.9748 92.3339 89.0351 92.3034 89.0785C92.2881 89.1002 92.2762 89.1177 92.2676 89.1304L92.2574 89.146L92.2541 89.1509L92.253 89.1527L92.2525 89.1534L92.2523 89.1537C92.2522 89.1539 92.2521 89.154 92.654 89.4105L92.2521 89.154L91.449 90.4122L92.8322 89.8527L92.8323 89.8527L92.8325 89.8526L92.8326 89.8525L92.8327 89.8525L92.8331 89.8523L92.8394 89.8499L92.8701 89.8381C92.8986 89.8273 92.9434 89.8108 93.005 89.7892C93.1281 89.746 93.3181 89.6824 93.579 89.604C94.1006 89.4472 94.9056 89.2306 96.0245 88.9978L96.0246 88.9977C100.417 88.0821 105.745 91.0433 106.578 95.9316C107.406 100.787 103.84 107.925 89.5563 115.348ZM93.0551 89.6682C93.0551 89.6682 93.0551 89.6682 93.0551 89.6682L93.0551 89.6682Z" fill="white" stroke="white" stroke-width="0.953448"/>
<path d="M72.5196 4L72.8567 3.66296L71.6307 2.43655L72.0575 4.11733C73.6315 10.3158 73.0276 15.4045 71.0952 19.8027C69.1571 24.2139 65.8685 27.9627 62.0192 31.4485C59.4414 33.7829 56.6397 35.9765 53.8386 38.1697C52.4459 39.2601 51.0534 40.3504 49.6885 41.4578C45.5998 44.7755 41.7843 48.2296 39.1305 52.2146C37.2941 54.9718 36.5925 57.7988 36.8208 60.6923C37.0483 63.5748 38.1958 66.4923 40.0044 69.4497C43.615 75.3533 49.9323 81.5269 57.1561 88.0446L57.9115 87.4978C56.6132 84.5635 54.6142 81.7171 52.6241 78.8834C52.418 78.5899 52.2119 78.2965 52.0068 78.0032C49.8058 74.8563 47.699 71.7062 46.5293 68.3636C45.3666 65.0412 45.133 61.536 46.6856 57.6649C48.2452 53.7764 51.6247 49.4746 57.7812 44.6126C73.2902 32.3688 77.1662 22.1826 77.0611 14.9689C77.0087 11.3722 75.9658 8.5537 74.9336 6.63286C74.4177 5.67266 73.9041 4.93592 73.5171 4.43683C73.3235 4.1872 73.1615 3.99675 73.0463 3.86725C72.9887 3.80249 72.9429 3.75295 72.9106 3.71883C72.8945 3.70177 72.8818 3.68857 72.8727 3.67925L72.8619 3.66819L72.8586 3.66484L72.8575 3.66372C72.8571 3.66331 72.8567 3.66296 72.5196 4Z" fill="white" stroke="white" stroke-width="0.953448"/>
<path d="M42.8208 156.548L42.8209 156.548C56.5808 157.429 74.0308 157.185 88.1784 155.09C95.2482 154.044 101.525 152.53 106.109 150.446C110.662 148.376 113.715 145.663 113.986 142.134L113.073 141.925C113.067 141.923 113.067 141.923 113.067 141.923L113.067 141.921L113.068 141.919L113.07 141.916L113.07 141.915C113.069 141.917 113.066 141.923 113.06 141.935C113.049 141.957 113.026 141.998 112.989 142.056C112.913 142.171 112.776 142.356 112.543 142.597C112.076 143.08 111.226 143.792 109.72 144.634C106.703 146.321 101.082 148.519 90.7177 150.47C67.3275 154.872 38.4632 154.357 21.3615 151.538L19.6212 151.251L20.98 152.375L21.2839 152.008C20.98 152.375 20.9804 152.376 20.9809 152.376L20.9818 152.377L20.984 152.379L20.9893 152.383L21.0039 152.394C21.0155 152.403 21.0309 152.415 21.0503 152.429C21.0891 152.456 21.1442 152.494 21.2181 152.54C21.366 152.632 21.5897 152.759 21.9101 152.911C22.5505 153.215 23.5802 153.624 25.169 154.065C28.3452 154.948 33.7717 155.968 42.8208 156.548Z" fill="white" stroke="white" stroke-width="0.953448"/>
</svg>
