<svg width="66" height="59" viewBox="0 0 66 59" fill="none" xmlns="http://www.w3.org/2000/svg">
<path d="M14.6602 51.3291H21.9929V58.6618H14.6602V51.3291Z" fill="white"/>
<path d="M43.9961 51.3291H51.3288V58.6618H43.9961V51.3291Z" fill="white"/>
<path d="M14.6655 0H21.9983V7.33273H14.6655V0Z" fill="white"/>
<path d="M43.9961 0H51.3288V7.33273H43.9961V0Z" fill="white"/>
<path d="M51.3453 29.3364V14.6709H43.9961V7.33272H36.6634V14.6709H29.3307V7.33272H21.998V14.6709H14.6652V29.3364H7.33252V36.6691H14.6652V44.0073H21.998V51.3345H29.3307V44.0073H36.6634V51.3345H43.9961V44.0073H51.3453V36.6691H58.6671V29.3364H51.3453ZM29.3252 29.3364H21.9925V22.0036H29.3252V29.3364ZM43.9907 29.3364H36.6579V22.0036H43.9907V29.3364Z" fill="white"/>
<path d="M58.6616 14.6654H65.9998V29.3418H58.6616V14.6654Z" fill="white"/>
<path d="M0 14.66H7.3382V29.3364H0V14.66Z" fill="white"/>
</svg>
