<svg width="61" height="50" viewBox="0 0 61 50" fill="none" xmlns="http://www.w3.org/2000/svg">
<path d="M25 50C11.215 50 0 38.7851 0 25C0 11.215 11.215 0 25 0C33.8951 0 42.1909 4.78676 46.6498 12.4922L35.8304 18.7529C33.5988 14.8961 29.4485 12.5 25 12.5C18.1074 12.5 12.5 18.1074 12.5 25C12.5 31.8924 18.1074 37.5 25 37.5C29.449 37.5 33.5993 35.1039 35.8311 31.2463L46.6505 37.5069C42.1917 45.213 33.8956 50 25 50Z" fill="white"/>
<path d="M49.9998 23.6111H47.2219V20.8334H44.4444V23.6111H41.6665V26.3888H44.4444V29.1667H47.2219V26.3888H49.9998V23.6111Z" fill="white"/>
<path d="M60.4168 23.6111H57.6389V20.8334H54.8614V23.6111H52.0835V26.3888H54.8614V29.1667H57.6389V26.3888H60.4168V23.6111Z" fill="white"/>
</svg>
