<svg width="54" height="50" viewBox="0 0 54 50" fill="none" xmlns="http://www.w3.org/2000/svg">
<path d="M44.3254 17.8074V21.3531H47.8711V17.8074H49.644V21.3531H53.1897V23.126H49.644V26.6717H53.1897V28.4446H49.644V31.9903H47.8711V28.4446H44.3254V31.9903H42.5525V28.4446H39.0068V26.6717H42.5525V23.126H39.0068V21.3531H42.5525V17.8074H44.3254ZM47.8711 23.126H44.3254V26.6717H47.8711V23.126Z" fill="white"/>
<path d="M25.0001 0C34.2485 0 42.3231 5.02271 46.648 12.4884L46.6058 12.4166L35.7246 18.6819C33.5807 15.052 29.6505 12.6024 25.1422 12.552L25.0001 12.5512C18.125 12.5512 12.5512 18.1247 12.5512 24.9999C12.5512 27.2482 13.1506 29.3557 14.193 31.176C16.3388 34.9221 20.3727 37.4488 25.0001 37.4488C29.6561 37.4488 33.713 34.89 35.8479 31.1039L35.7961 31.1947L46.6609 37.489C42.3834 44.8915 34.4195 49.8987 25.2786 49.9985L25.0001 50C15.7226 50 7.62508 44.9464 3.31106 37.4412C1.20501 33.7772 0 29.5295 0 24.9999C0 11.193 11.1927 0 25.0001 0Z" fill="white"/>
</svg>
