<svg width="50" height="50" viewBox="0 0 50 50" fill="none" xmlns="http://www.w3.org/2000/svg">
<path d="M0 6C0 2.68629 2.68629 0 6 0H44C47.3137 0 50 2.68629 50 6V44C50 47.3137 47.3137 50 44 50H6C2.68629 50 0 47.3137 0 44V6ZM45.8571 38.0065C45.8684 38.0229 45.8939 38.0126 45.8905 37.9929C45.5035 35.7477 44.0012 33.8556 39.6479 32.0896C38.2895 31.4528 36.797 30.9878 36.1221 30.086C35.95 29.8559 35.8596 29.5768 35.8008 29.2955C35.7091 28.8574 35.713 28.561 35.8083 28.2458C36.1208 26.9 37.7146 26.4958 38.9646 26.8708C39.1344 26.9231 39.3016 26.9918 39.464 27.0768C40.5439 27.6423 42.1283 27.9988 43.1554 27.3423C44.0988 26.7394 44.2316 25.5622 43.4333 24.7771C42.1208 23.3083 40.3729 22.5583 37.5292 22.6229L36.0604 22.8083C34.6521 23.1521 33.3104 23.9021 32.4979 24.9021C30.1229 27.5917 30.8083 32.2792 33.6833 34.2167C36.5271 36.3417 40.6854 36.8083 41.2167 38.8104C41.7167 41.2479 39.4042 42.0292 37.1208 41.7479C36.2054 41.5447 35.5114 41.2034 34.9036 40.6847C33.9417 39.8638 32.6101 39.4553 31.5135 40.0851C30.4543 40.6935 30.0467 42.0034 30.8579 42.9166C31.0067 43.0841 31.1665 43.2626 31.3396 43.4646C34.9646 47.1229 44.0271 46.9354 45.6542 41.3729C45.7137 41.1881 46.1414 39.9412 45.8229 38.021C45.8196 38.0011 45.8457 37.9899 45.8571 38.0065ZM27.1812 23.0979C27.1858 23.0349 27.1358 22.9812 27.0726 22.9812H24.7644C23.5173 22.9812 22.5063 23.9923 22.5045 25.2394C22.4999 28.5174 22.4875 31.7859 22.4875 35.075C22.4875 37.6417 22.6187 39.9979 22.2 40.7229C21.6231 41.9273 20.2836 41.9921 19.3923 41.8328C19.0854 41.778 18.7908 41.6627 18.5319 41.489C17.9609 41.1059 17.6071 40.6074 17.2083 39.9417C17.0435 39.667 16.7993 39.6223 16.5266 39.7904L16.0356 40.0931C14.3919 41.1064 13.6993 43.334 15.2011 44.5476C15.4227 44.7268 15.6557 44.8907 15.9 45.0375C17.6812 46.1 20.075 46.4437 22.5812 45.8812C24.2125 45.4104 25.6187 44.4417 26.3542 42.9417C27.4167 41.0042 27.1917 38.6292 27.1812 35.9708C27.2062 31.6917 27.1812 27.4104 27.1812 23.0979Z" fill="#323232"/>
</svg>
