<svg width="60" height="29" viewBox="0 0 60 29" fill="none" xmlns="http://www.w3.org/2000/svg">
<path d="M15.0703 5.9703H4.54867L0 29.0027H5.40271L6.54054 23.0324H11.6594C16.4919 23.3162 21.8973 19.3352 21.8973 12.5108C21.8973 8.52975 19.6216 6.25409 15.0729 5.9703H15.0703ZM11.0892 18.7676H7.67571L9.09734 10.2378H12.7946C14.7838 10.2378 16.2081 11.0919 16.2081 12.7973C15.9243 17.6324 13.6487 18.4838 11.0892 18.7676ZM34.1217 5.9703H29.0027L30.1406 0H24.7379L20.1892 23.0324H25.5919L28.1514 10.2378H32.4162C34.4081 10.2378 34.4081 11.0919 34.1217 12.5135L32.1324 23.0351H37.8189L39.8082 11.3757C40.3757 8.5324 38.6703 6.25409 34.1217 5.9703ZM53.173 5.9703H42.6514L38.1027 29.0027H43.5054L44.6433 23.0324H49.7622C54.5973 23.3162 60 19.3352 60 12.5108C60 8.52975 57.7217 6.25409 53.173 5.9703ZM49.1919 18.7676H45.7784L47.2001 10.2378H50.8974C52.8892 10.2378 54.3108 11.0919 54.3108 12.7973C54.0271 17.6324 51.7514 18.4838 49.1919 18.7676Z" fill="white"/>
</svg>
