<svg width="56" height="56" viewBox="0 0 56 56" fill="none" xmlns="http://www.w3.org/2000/svg">
<path d="M27.2522 0.00045617C24.9777 0.0110248 22.8056 0.20501 20.8943 0.543206C15.264 1.5379 14.2418 3.61987 14.2418 7.45938V12.5302H27.5469V14.2205H14.2418H9.24847C5.38163 14.2205 1.99572 16.5447 0.936648 20.9661C-0.284976 26.034 -0.339162 29.1965 0.936648 34.4883C1.88242 38.4273 4.14106 41.2339 8.0079 41.2339H12.5825V35.1551C12.5825 30.7635 16.3822 26.8898 20.8943 26.8898H34.1839C37.8833 26.8898 40.8365 23.8439 40.8365 20.1287V7.45938C40.8365 3.85362 37.7946 1.14499 34.1839 0.543206C31.8983 0.162735 29.5268 -0.0101126 27.2522 0.00045617ZM20.0569 4.07883C21.4313 4.07883 22.5536 5.21948 22.5536 6.622C22.5536 8.01954 21.4313 9.14966 20.0569 9.14966C18.6777 9.14966 17.5603 8.01954 17.5603 6.622C17.5603 5.21948 18.6777 4.07883 20.0569 4.07883Z" fill="#323232"/>
<path d="M42.4959 14.2205V20.1287C42.4959 24.7093 38.6125 28.5646 34.1841 28.5646H20.8945C17.2543 28.5646 14.2419 31.6801 14.2419 35.3257V47.995C14.2419 51.6008 17.3774 53.7216 20.8945 54.7561C25.1062 55.9945 29.1449 56.2183 34.1841 54.7561C37.5337 53.7863 40.8367 51.8345 40.8367 47.995V42.9242H27.5471V41.2339H40.8367H47.4892C51.3561 41.2339 52.797 38.5367 54.1418 34.4883C55.5309 30.3205 55.4718 26.3126 54.1418 20.9661C53.1861 17.1166 51.361 14.2205 47.4892 14.2205H42.4959ZM35.0215 46.3047C36.4007 46.3047 37.5181 47.4348 37.5181 48.8324C37.5181 50.2349 36.4007 51.3756 35.0215 51.3756C33.6472 51.3756 32.5248 50.2349 32.5248 48.8324C32.5248 47.4348 33.6472 46.3047 35.0215 46.3047Z" fill="#323232"/>
</svg>
