<svg width="55" height="53" viewBox="0 0 55 53" fill="none" xmlns="http://www.w3.org/2000/svg">
<path d="M39.1209 31.8492C31.1265 37.001 23.2052 42.1064 15.0748 47.3447C27.2506 49.0074 39.2093 50.6396 51.405 52.3047C47.2507 45.3864 43.2028 38.6463 39.1209 31.8492ZM54.8428 9.0524C53.7693 10.6636 52.6939 12.2743 51.6222 13.8867C47.9406 19.4252 44.2602 24.9631 40.583 30.5034C40.3782 30.8128 40.1127 31.0579 40.4011 31.5331C43.9552 37.4007 47.4803 43.2869 51.014 49.1664C51.5715 50.0951 52.1358 51.0202 52.8572 51.9112L55 9.09881L54.8428 9.0524ZM6.33359 27.3478C6.50003 27.5056 6.91522 27.5965 7.10765 27.5019C10.5164 25.8263 13.9468 24.1884 17.2812 22.3748C18.3678 21.7845 19.2031 20.7246 20.1405 19.8658C23.2423 17.0214 26.3386 14.1708 29.4348 11.3195C29.6248 11.1444 29.8482 10.9755 29.962 10.7546C31.0739 8.58091 32.166 6.39732 33.2977 4.14938C31.9482 3.64386 30.6693 3.14699 29.3748 2.6953C29.1991 2.63405 28.9231 2.75594 28.7313 2.86237C25.7347 4.53672 22.6817 6.12135 19.7798 7.9473C18.3276 8.86059 17.1445 10.2064 15.8587 11.3795C13.7877 13.2705 11.718 15.1657 9.67611 17.09C9.13408 17.6005 8.64031 18.184 8.21894 18.7978C6.82179 20.831 5.46795 22.8934 4.05038 25.0151C4.84362 25.8355 5.56324 26.6189 6.33359 27.3478ZM18.791 24.5677C17.0962 31.7311 15.4095 38.8536 13.6683 46.2106C21.8353 40.9487 29.8135 35.808 37.7386 30.7014C31.4316 28.6596 25.1444 26.6245 18.791 24.5677ZM32.3028 12.5385L39.2452 29.4256C43.777 22.6186 48.2184 15.946 52.7607 9.12109C45.861 10.2738 39.1258 11.3987 32.3028 12.5385ZM19.0756 23.1025C25.2892 25.1203 31.3796 27.0972 37.6457 29.131C35.3186 23.4614 33.0713 17.9903 30.7769 12.403L19.0756 23.1025ZM6.59037 31.525L0.0909579 47.0614C4.25581 46.9382 8.29381 46.8188 12.4692 46.6957C10.509 41.6367 8.5871 36.6768 6.59037 31.525ZM12.6164 43.0927L12.7699 43.0592C14.2555 36.8791 15.7634 30.7417 17.2812 24.3208C13.8966 26.0793 10.668 27.7574 7.35021 29.4819C9.0425 33.8825 10.848 38.5231 12.6164 43.0927ZM50.2628 8.11932C48.2859 7.59585 46.3108 7.06991 44.332 6.55015C41.4901 5.80331 38.6457 5.06452 35.8049 4.31026C35.4504 4.2162 35.193 4.15495 34.9845 4.58251C33.9809 6.63925 32.9451 8.68115 31.9253 10.7299C31.8938 10.7936 31.9 10.8765 31.8758 11.0343C38.0312 10.1018 44.1458 9.17492 50.2591 8.24864L50.2628 8.11932ZM38.796 3.44028C44.1043 4.90921 49.4126 6.37752 54.9066 7.89719L52.2447 0.312472C47.7339 1.313 43.277 2.30115 38.8201 3.28931L38.796 3.44028ZM43.673 52.5435L30.4558 50.7392C24.9656 49.9899 19.4853 49.1651 13.9827 48.5309C11.9872 48.3013 9.93846 48.513 7.91513 48.547C6.25253 48.5755 4.58993 48.6386 2.92795 48.6912C2.75656 48.6961 2.58578 48.7308 2.41562 48.9145C16.1582 50.1855 29.902 51.4558 43.644 52.7273L43.673 52.5435ZM0.361973 42.3192C2.13409 38.2101 3.89631 34.0978 5.67461 29.9924C5.85282 29.5796 5.83982 29.3006 5.49146 28.9695C4.7471 28.2611 4.05657 27.4981 3.2429 26.6529L0 42.6608L0.11942 42.7177C0.201715 42.5853 0.301335 42.4615 0.361973 42.3192ZM35.2672 2.3556C38.254 1.58463 41.284 0.983204 44.2961 0.310616C44.4904 0.266684 44.681 0.202333 44.8728 0.147264L44.8437 0L31.9018 1.74056C33.1177 2.27207 34.0539 2.6687 35.2672 2.3556Z" fill="white"/>
</svg>
